<?xml version="1.0" standalone="no"?>
<!DOCTYPE svg PUBLIC "-//W3C//DTD SVG 20010904//EN"
 "http://www.w3.org/TR/2001/REC-SVG-20010904/DTD/svg10.dtd">
<svg version="1.0" xmlns="http://www.w3.org/2000/svg"
 width="1024.000000pt" height="1024.000000pt" viewBox="0 0 1024.000000 1024.000000"
 preserveAspectRatio="xMidYMid meet">
<metadata>
Created by potrace 1.16, written by Peter Selinger 2001-2019
</metadata>
<g transform="translate(0.000000,1024.000000) scale(0.100000,-0.100000)"
fill="#000000" stroke="none">
<path d="M0 5120 l0 -5120 5120 0 5120 0 0 5120 0 5120 -5120 0 -5120 0 0
-5120z m5495 3060 c177 -27 287 -51 445 -97 323 -93 708 -275 967 -455 88 -62
323 -258 323 -270 0 -25 -232 -278 -255 -278 -6 0 -31 21 -55 46 -144 148
-437 333 -743 468 -520 230 -1135 287 -1709 160 -201 -44 -405 -107 -563 -174
-66 -27 -127 -50 -136 -50 -9 0 -38 25 -63 55 -58 67 -156 232 -150 250 10 25
371 176 559 233 201 62 442 110 650 131 157 16 570 6 730 -19z m-2133 -562
c60 -88 148 -229 148 -237 0 -3 -8 -11 -17 -17 -10 -7 -80 -61 -155 -121 -210
-167 -372 -329 -491 -488 -214 -287 -386 -616 -441 -843 l-18 -72 -133 0 c-72
0 -160 -3 -194 -6 -52 -6 -61 -4 -61 9 0 29 78 290 121 402 51 136 171 369
254 495 34 52 75 115 90 140 104 166 423 499 616 642 48 35 230 158 235 158 2
0 22 -28 46 -62z m1951 -234 c45 -23 66 -44 88 -86 28 -55 25 -106 -11 -159
-65 -98 -179 -105 -258 -15 -37 43 -46 72 -40 131 7 56 37 97 90 124 51 25 88
27 131 5z m516 -62 c37 -19 71 -72 71 -112 -1 -63 -78 -140 -141 -140 -42 0
-106 53 -120 99 -14 48 -7 80 28 121 44 53 101 64 162 32z m459 -17 c62 -29
110 -61 219 -147 l81 -65 -136 -6 c-74 -4 -170 -7 -213 -7 -73 0 -81 2 -113
31 -62 54 -58 129 11 189 42 37 79 39 151 5z m-1431 -7 c59 -66 58 -123 -6
-191 l-26 -28 -637 2 c-351 1 -638 5 -638 10 0 16 101 96 176 140 168 99 96
89 635 89 l476 0 20 -22z m2619 -181 c135 -144 382 -544 491 -794 50 -115 173
-453 173 -477 0 -3 -89 -6 -199 -6 l-199 0 -7 38 c-7 44 -104 291 -147 377
-91 181 -215 380 -328 525 -115 147 -111 126 -40 213 55 68 176 186 191 187 4
0 33 -28 65 -63z m-2616 -276 c16 -18 30 -41 32 -50 8 -28 -11 -77 -39 -105
l-28 -28 -846 4 c-466 1 -850 6 -854 10 -15 15 11 54 86 127 l79 76 771 0 771
0 28 -34z m2084 -51 c47 -49 86 -94 86 -99 0 -6 -15 -12 -32 -15 -18 -3 -439
-7 -935 -10 l-902 -4 -31 34 c-43 49 -41 92 6 144 l36 40 843 0 842 0 87 -90z
m-2729 -353 c19 -19 37 -46 41 -61 8 -31 -9 -76 -39 -104 -28 -25 -121 -28
-853 -24 -481 2 -522 3 -528 19 -5 11 12 45 51 102 l58 86 555 5 c305 3 584 6
619 8 60 2 65 0 96 -31z m2983 -5 c40 -48 92 -130 92 -145 0 -8 -10 -18 -22
-22 -13 -5 -629 -10 -1369 -12 l-1345 -5 -37 41 c-20 23 -37 50 -37 62 0 29
26 74 57 99 l28 23 1305 -7 1305 -6 23 -28z m-927 -372 c71 -37 82 -54 76
-122 -6 -70 -16 -84 -70 -99 -52 -14 -84 -5 -124 33 -65 63 -63 123 7 182 38
31 58 32 111 6z m-3093 -1 c224 0 458 3 519 7 l113 7 40 -40 c29 -29 40 -49
40 -70 0 -37 -37 -94 -73 -111 -20 -10 -158 -14 -602 -17 l-575 -3 0 26 c0 30
59 164 85 195 9 10 23 16 31 13 8 -3 198 -6 422 -7z m2029 1 l573 0 40 -36
c22 -20 43 -47 46 -59 7 -28 -17 -77 -52 -104 -27 -21 -31 -21 -814 -21 l-788
0 -41 40 c-57 55 -57 96 -1 153 l41 40 211 -6 c116 -4 469 -7 785 -7z m2210
-48 c39 -57 63 -113 63 -147 l0 -25 -497 2 -498 3 -3 99 c-2 73 1 102 10 108
7 4 211 8 453 8 l440 0 32 -48z m-4450 -498 c57 -81 399 -721 391 -730 -2 -1
-43 -4 -92 -6 l-89 -3 -41 70 -42 70 -149 -3 c-83 -1 -174 1 -202 6 -62 11
-68 6 -113 -86 l-30 -62 -100 0 c-73 0 -100 3 -100 13 1 30 226 423 406 707
40 64 76 124 80 134 5 14 12 8 34 -32 15 -27 36 -63 47 -78z m543 30 c91 -84
252 -257 317 -341 26 -34 51 -62 56 -63 4 0 7 105 7 234 l0 233 92 7 c50 3 92
5 92 4 1 -2 0 -191 -2 -420 l-3 -418 -56 0 c-48 0 -58 3 -77 27 -11 15 -75 90
-141 167 -66 76 -144 167 -174 202 -29 35 -58 64 -63 64 -7 0 -9 -83 -6 -235
l3 -235 -57 0 c-86 0 -104 10 -116 67 -6 26 -12 211 -13 411 -2 387 -2 390 45
373 11 -5 54 -39 96 -77z m-1058 -111 c3 -104 3 -244 -1 -313 -8 -143 -22
-180 -98 -261 -158 -169 -419 -76 -483 171 -6 25 -13 53 -16 62 -4 15 5 17 90
15 l95 -2 10 -43 c15 -58 57 -101 104 -109 34 -5 41 -2 77 36 l40 42 0 289 0
289 63 4 c34 2 74 4 88 5 l26 2 5 -187z m2133 155 c110 -36 180 -96 227 -196
26 -54 31 -76 35 -180 4 -79 2 -136 -7 -171 -23 -98 -127 -197 -252 -240 -45
-15 -98 -21 -246 -27 -117 -4 -191 -3 -195 3 -3 5 -3 197 0 427 l6 418 186 -7
c143 -6 200 -12 246 -27z m880 -7 c87 -40 134 -78 178 -143 49 -71 71 -161 64
-258 -10 -150 -72 -268 -175 -336 -128 -86 -254 -96 -385 -31 -136 68 -195
151 -224 315 -41 233 59 399 286 474 81 27 171 19 256 -21z m735 18 c107 -24
201 -118 220 -220 22 -112 -17 -226 -94 -281 l-44 -31 66 -106 c92 -149 105
-171 101 -175 -2 -2 -43 -6 -92 -8 l-87 -4 -71 110 c-100 155 -101 156 -171
156 l-58 0 0 44 c0 98 21 116 137 116 90 0 143 41 143 111 0 44 -30 86 -76
105 -21 9 -71 14 -131 14 l-98 0 -2 -327 c-2 -179 -5 -328 -7 -330 -2 -2 -42
-1 -89 3 l-85 7 1 418 1 418 196 -5 c107 -3 215 -10 240 -15z m810 -53 c0
-119 2 -116 -101 -116 l-89 0 0 -327 0 -328 -85 0 -86 0 3 327 3 327 -109 0
c-60 0 -111 2 -113 5 -2 2 -7 44 -10 92 l-6 89 297 1 296 1 0 -71z m215 -81
c6 -82 10 -271 10 -420 l0 -270 -80 0 -80 0 -7 280 c-7 260 -4 441 8 525 l5
35 67 0 67 0 10 -150z m695 145 c0 -38 -127 -240 -255 -407 -64 -81 -155 -221
-155 -235 0 -4 81 -8 180 -8 l180 0 0 -97 0 -96 -202 6 c-112 4 -248 7 -302 7
l-99 0 6 71 c5 57 14 85 50 152 63 118 122 208 214 322 l79 100 -158 0 c-130
0 -160 3 -168 15 -5 8 -10 50 -10 92 l0 78 243 3 c133 1 277 3 320 5 47 1 77
-2 77 -8z m204 -339 c35 -37 44 -96 21 -140 -18 -36 -72 -64 -114 -59 -29 3
-27 -9 -23 148 l2 80 43 0 c35 0 49 -6 71 -29z m293 -1 c7 -14 20 -43 29 -65
l16 -40 28 63 c22 47 34 62 49 62 12 0 21 -2 21 -5 0 -3 -15 -45 -34 -93 -18
-48 -36 -95 -39 -104 -14 -40 -37 -16 -71 73 -47 126 -59 140 -75 97 -7 -19
-14 -22 -56 -19 -35 2 -46 -1 -43 -10 5 -15 57 -31 76 -24 8 3 12 -6 12 -25 0
-28 -2 -30 -41 -30 -24 0 -38 -4 -34 -10 3 -5 17 -10 31 -10 31 0 60 -15 68
-35 4 -13 -7 -15 -74 -15 l-79 0 -3 106 c-2 58 -1 108 1 110 3 3 50 3 105 2
96 -3 101 -4 113 -28z m-2151 -715 c76 -58 93 -132 50 -215 -26 -53 -83 -90
-137 -90 -51 0 -115 49 -141 108 -18 41 -20 52 -9 91 33 125 146 175 237 106z
m-2443 -14 c41 -16 82 -78 81 -122 -1 -41 -35 -103 -61 -114 -10 -3 -275 -8
-589 -10 l-571 -4 -27 54 c-32 65 -43 134 -27 164 l12 21 487 1 c268 1 519 5
557 9 107 11 112 11 138 1z m1969 -41 c44 -47 49 -86 18 -137 -39 -65 10 -61
-833 -65 l-769 -3 -39 42 c-53 58 -50 113 11 168 22 19 40 20 744 25 396 3
745 6 775 8 51 2 56 0 93 -38z m1682 24 c27 -10 20 -87 -15 -160 l-30 -64
-406 0 -406 0 -39 40 c-53 56 -50 89 15 158 l31 32 417 0 c230 0 424 -3 433
-6z m-5092 -112 c65 -197 220 -528 315 -676 189 -292 515 -631 774 -803 80
-53 80 -47 -14 -150 -34 -38 -84 -99 -111 -136 -26 -37 -51 -67 -55 -67 -4 0
-16 10 -27 21 -10 12 -58 48 -106 81 -116 79 -327 275 -456 423 -135 154 -299
374 -369 494 -141 238 -273 561 -323 786 -33 149 -49 135 158 135 l178 0 36
-108z m5758 89 c0 -10 -11 -63 -25 -117 -73 -281 -199 -570 -360 -824 -114
-180 -129 -201 -275 -375 -202 -243 -369 -400 -575 -539 l-100 -68 -20 28
c-11 15 -36 46 -56 68 -45 52 -163 216 -158 220 2 2 24 16 48 31 70 44 208
151 321 250 100 88 304 311 372 406 17 24 48 67 69 94 53 71 163 262 219 382
45 96 128 326 150 421 l11 42 189 0 c180 0 190 -1 190 -19z m-2787 -388 c36
-18 78 -82 84 -130 3 -22 -2 -53 -11 -74 -21 -50 -83 -108 -124 -115 -80 -15
-168 44 -191 129 -17 59 -7 97 37 147 59 65 131 80 205 43z m-514 -65 c48 -39
64 -73 51 -112 -6 -18 -23 -45 -38 -60 l-28 -26 -958 -3 -958 -3 -28 41 c-56
82 -63 104 -50 147 l13 38 571 3 c314 2 757 3 983 1 l413 -2 29 -24z m2419 -4
c12 -14 22 -32 22 -40 0 -30 -29 -82 -66 -120 l-39 -39 -717 1 c-647 1 -720 3
-743 18 -35 23 -58 72 -51 110 8 37 46 94 65 98 8 2 350 2 760 0 l746 -3 23
-25z m-2528 -411 c8 0 529 0 1158 2 647 1 1142 -2 1142 -7 0 -33 -103 -147
-178 -196 -28 -18 122 -17 -2747 -22 l-830 -1 -87 81 c-88 81 -114 124 -87
141 8 5 352 8 814 5 440 -2 807 -3 815 -3z m1837 -458 c-92 -79 -132 -109
-209 -155 l-84 -50 -1210 -2 -1210 -2 -105 63 c-140 86 -229 149 -229 164 0 9
349 12 1541 12 l1540 0 -34 -30z m-163 -489 c29 -39 65 -94 79 -123 15 -28 38
-68 52 -89 23 -34 24 -39 10 -54 -57 -63 -410 -194 -740 -275 -246 -60 -417
-79 -725 -79 -520 -1 -828 60 -1275 252 -121 52 -237 103 -258 114 l-39 19 26
32 c14 18 51 64 80 102 30 39 79 94 108 123 l54 53 106 -51 c184 -88 502 -183
773 -231 150 -27 485 -37 638 -19 213 24 430 69 644 134 100 30 334 128 371
155 15 10 31 17 35 14 5 -3 32 -37 61 -77z"/>
<path d="M2836 5239 c-20 -40 -45 -84 -56 -99 -11 -16 -20 -31 -20 -33 0 -3
56 -7 125 -9 69 -2 125 0 125 4 0 13 -122 208 -130 208 -4 0 -24 -32 -44 -71z"/>
<path d="M4324 5406 c3 -16 6 -124 6 -240 l0 -211 78 3 c178 7 276 94 275 244
0 80 -32 142 -95 188 -45 33 -68 38 -186 42 l-84 3 6 -29z"/>
<path d="M5209 5402 c-145 -75 -168 -263 -47 -379 108 -104 263 -76 344 62 54
94 40 195 -39 273 -77 75 -169 91 -258 44z"/>
</g>
</svg>
